<?xml version="1.0" encoding="UTF-8"?>
<svg id="Layer_1" data-name="Layer 1" xmlns="http://www.w3.org/2000/svg" viewBox="0 0 9000 9000">
  <defs>
    <style>
      .cls-1, .cls-2 {
        stroke-width: 0px;
      }

      .cls-2 {
        fill: #fff;
      }
    </style>
  </defs>
  <path class="cls-2" d="M-3764.82,12764.82c0-5509.88,0-11019.76,0-16529.64,5509.88,0,11019.76,0,16529.64,0,0,5509.88,0,11019.76,0,16529.64-5509.88,0-11019.76,0-16529.64,0ZM4489.19,7098.33c12.37-17.53,20.4-27.06,26.44-37.73,141.66-250.17,315.14-472.92,541.47-654.04,166.39-133.15,350.58-232.35,551.09-297.29,235.9-76.4,480.83-103.99,729-100.59,78.26,1.07,156.56.17,239.03.17,1.41-26.69,3.49-47.68,3.49-68.68-.28-844.13-.24-1688.27-1.58-2532.4-.29-184.51-5.3-369.02-8.74-553.52-1.12-60.04-27.28-80.55-85.35-69.71-22.51,4.2-45.3,7.01-67.66,11.87-111.4,24.22-228.42,12.34-334.81,75.52-52.71,31.31-128.59,21.39-192.46,36.55-173.33,41.16-344.55,87.86-508.04,162.32-227.18,103.47-423.16,251.76-595.95,426.31-100.14,101.16-170.62,231.59-255.28,348.24-12.17,16.77-28.99,30.16-43.38,44.83-55.71-79.88-104.98-151.72-155.47-222.7-156.5-220.02-358.82-389.02-590.86-523.34-301.48-174.52-629.03-250.32-975.68-251.63-55.55-.21-111.08-5.59-179.64-9.27,56.38-53.69,102.4-97.64,148.55-141.45,235.62-223.65,504.14-396.48,804.32-520.32,241.03-99.44,492.08-160.51,751.73-176.27,284.09-17.25,564.83,7.67,842.58,78.75,236.53,60.53,460.16,147.99,672.4,267,47.93,26.87,95.02,72.48,144.69,75.71,139.81,9.08,281.96,11.61,421-3.46,240.13-26.03,460.41-119.3,672.66-231.68,210.08-111.23,404.46-244.46,578.81-406.63,34.12-31.74,39.31-55.05,2.09-91.01-66.63-64.36-126.56-135.59-191.15-202.14-106.85-110.08-214.7-219.22-323.23-327.64-26.81-26.78-54.1-47.84-96.98-16.91-214.35,154.65-450.15,258.67-715.92,281.49-182.25,15.65-359.63-10.37-528.47-84.29-170.76-74.76-316.13-184.12-429.06-331.87-126.18-165.08-220.94-347.02-229.55-559.32-3.41-84.15-42.38-126.27-127.79-125.62-322.48,2.44-644.97,2.62-967.45,5.05-102.08.77-101.91,2.81-120.81,100.7-55.59,287.9-167.33,544.91-399.1,738.18-220.39,183.79-474.24,270.72-759.4,263.78-285.24-6.94-531.96-123.24-756.76-288.15-50.1-36.75-70.09-17.48-100.68,13.41-206.44,208.48-412.44,417.41-620.2,624.57-100.89,100.6-99.22,96.8-19.38,213.92,137.31,201.42,233.08,418.56,250.77,666.89,21.01,294.85-74.47,546.86-265.91,765.85-44.83,51.28-97.96,95.31-152.38,147.59,18.9,8.04,25.02,12.65,31.43,13.09,109.61,7.46,219.26,4.58,323.21-33.01,183.78-66.45,365.58-138.35,548.43-207.41,308.43-116.48,628.18-150.52,953.24-110.92,147.37,17.95,297.27,48.13,435.62,100.31,310.73,117.2,553.04,323.43,727.24,609.61,122.35,201,196.4,418.62,209.06,650.51,15.1,276.67,9.26,554.51,11.59,831.84,1.47,175.5,1.35,351.01,1.82,526.51.19,71.77.03,143.54.03,215.31-5.1,4.15-10.19,8.3-15.29,12.46-426.75-410.41-944.96-582.78-1530.24-595.42v-2040.98c-68.98,0-128.03-3-186.62.84-59.39,3.89-118.33,14.54-182.53,22.89v2392.3c31.01,1.84,57.47,3.89,83.96,4.91,169.32,6.55,339.91,2.33,507.59,22.43,147.34,17.67,295.91,49.48,436.08,97.82,384.26,132.51,682.17,381.03,907.95,717.05,53.38,79.45,102.09,162.04,156.45,248.78ZM7598.36,2305.65c-3.35-2.74-6.71-5.49-10.06-8.23-43.66,26.27-86.33,54.39-131.17,78.47-119.27,64.03-240.7,124.12-358.5,190.69-33.06,18.68-87.89,13.23-87.89,79.93.02,324.26-6.57,648.53-6.7,972.79-.19,451.46,3.58,902.93,5.02,1354.39.6,187.98-.62,375.96-.69,563.94-.1,268.77-.47,537.54.68,806.3.21,49.83-16.83,66.88-69.26,67.5-259.75,3.09-521.1-21.85-777.92,40.62-124.03,30.17-250.07,52.77-372.86,87.16-158.09,44.27-300.04,125.25-435.79,215.83-142,94.75-268.52,207.82-379.65,337.65-122.51,143.12-217.72,304.34-297.84,473.39-56.88,120.03-99.22,246.95-148.43,370.64-81.37,204.54-163.51,408.78-244.32,613.55-26.19,66.37-20.36,71.86,52.79,71.37,223.95-1.51,447.91-3.16,671.86-2.58,67.6.18,73.66-10.37,87.46-76.95,25.6-123.49,43.01-253.48,96.1-365.47,116.55-245.82,293.06-439.75,550.49-552.63,128.82-56.49,260.59-93.6,399.46-96.04,104.4-1.83,210.54,4.49,313.17,22.64,82.31,14.56,160.02,53.88,240.64,79.47,113.56,36.04,216.2,92.32,312.86,160.86,33.83,23.99,68.7,33.25,101.83-1.54,131.6-138.21,262.55-277.03,394.64-414.77,94.25-98.29,190.52-194.64,284.53-293.16,21.82-22.87,51.01-45.95,17.87-85-126.5-149.04-211.57-318.97-269.53-506.34-70.42-227.66-51.12-449.77,30.03-665.69,96.67-257.23,276.76-445.8,521.22-572.37,144.75-74.95,299.22-121.8,457.58-155.64,56.49-12.07,74.89-24.83,74.44-80.99-2.8-354.7-6.68-709.4-7.21-1064.11-.07-46.56-20.9-63.12-58.86-70.93-17.47-3.6-35.98-2.41-53.29-6.49-98.64-23.28-201.94-35.77-294.32-74.32-118.22-49.33-229.22-113.08-328.93-200.95-151.75-133.74-253.6-294.57-316.68-482.4-74.04-220.46-89.57-443.8-15.27-668.19,15.89-47.99,34.91-94.95,52.49-142.38ZM3924.38,8398.72c6.14-.1,12.29-.2,18.43-.3,21.23-34.38,46.67-66.9,62.92-103.49,54.61-122.99,110.63-245.69,157.48-371.71,78.4-210.89,88.27-421.14-27.01-625.31-122.97-217.78-287.82-399.02-492.9-539.38-162.81-111.43-339.69-199.44-534.78-243.21-121.96-27.36-243.42-58.59-366.7-77.89-94.73-14.84-191.88-16.32-288.09-19.19-137.85-4.11-275.83-5.86-413.72-4.9-52.19.36-73.1-16.71-73-70.45.75-401.29-1.1-802.58-.78-1203.86.3-370.72,2.35-741.44,3.51-1112.16.27-86.75.04-173.49.04-273.19-37.62,13.61-60.25,20.9-82.17,29.89-72.29,29.64-142.42,66.37-216.93,88.35-100.9,29.77-204.52,51.3-307.97,71.19-186.29,35.83-372.91,20.45-557.8-10.73-102.54-17.29-202.86-47.56-304.44-70.85-79.02-18.11-126.45,23.02-125.96,101.75,1.85,301.04,2.33,602.09,2.42,903.14.02,55.44-5.34,110.86-5.88,166.32-.29,29.26,4.43,55,43.16,63.01,90.43,18.69,182.63,34.28,269.17,65.04,107.28,38.14,217.4,78.14,312.3,139.11,173.67,111.57,312.16,259.03,395.93,454.04,147.68,343.79,128.85,677.59-50.18,1003.42-38.22,69.55-86.87,133.3-127.2,201.79-44.73,75.95-34.81,122.81,18.72,175.03,161.17,157.23,320.04,316.81,479.83,475.45,62.28,61.83,123.12,125.26,188.15,184.05,13.59,12.28,49.38,17.76,63.68,8.66,107.37-68.27,212.35-140.35,335.73-178.06,107.32-32.8,213.03-80.6,322.8-93.69,256.2-30.55,505.97,6.44,735.98,131.28,230.92,125.33,393.4,314.08,494.38,555.98,24.94,59.74,47.31,120.56,70.86,180.88Z"/>
  <path class="cls-1" d="M4489.19,7098.33c-54.36-86.74-103.07-169.33-156.45-248.78-225.78-336.02-523.69-584.54-907.95-717.05-140.17-48.34-288.74-80.15-436.08-97.82-167.68-20.1-338.27-15.89-507.59-22.43-26.5-1.02-52.95-3.07-83.96-4.91v-2392.3c64.19-8.35,123.14-19,182.53-22.89,58.6-3.84,117.64-.84,186.62-.84v2040.98c585.29,12.64,1103.5,185,1530.24,595.42,5.1-4.15,10.19-8.3,15.29-12.46,0-71.77.16-143.54-.03-215.31-.46-175.5-.35-351.01-1.82-526.51-2.33-277.34,3.51-555.17-11.59-831.84-12.66-231.89-86.71-449.52-209.06-650.51-174.2-286.18-416.52-492.41-727.24-609.61-138.36-52.19-288.26-82.36-435.62-100.31-325.06-39.6-644.8-5.56-953.24,110.92-182.84,69.05-364.65,140.95-548.43,207.41-103.95,37.59-213.6,40.47-323.21,33.01-6.41-.44-12.54-5.04-31.43-13.09,54.42-52.27,107.55-96.3,152.38-147.59,191.44-218.99,286.92-471,265.91-765.85-17.7-248.34-113.46-465.47-250.77-666.89-79.84-117.12-81.51-113.32,19.38-213.92,207.76-207.16,413.75-416.1,620.2-624.57,30.59-30.9,50.59-50.16,100.68-13.41,224.8,164.91,471.51,281.21,756.76,288.15,285.17,6.94,539.01-79.99,759.4-263.78,231.77-193.28,343.51-450.28,399.1-738.18,18.9-97.89,18.73-99.93,120.81-100.7,322.48-2.43,644.97-2.61,967.45-5.05,85.42-.65,124.38,41.47,127.79,125.62,8.6,212.3,103.37,394.24,229.55,559.32,112.93,147.76,258.3,257.11,429.06,331.87,168.84,73.92,346.22,99.94,528.47,84.29,265.77-22.81,501.57-126.84,715.92-281.49,42.88-30.94,70.17-9.88,96.98,16.91,108.54,108.42,216.38,217.56,323.23,327.64,64.59,66.55,124.52,137.78,191.15,202.14,37.22,35.96,32.04,59.27-2.09,91.01-174.35,162.17-368.73,295.39-578.81,406.63-212.25,112.38-432.54,205.66-672.66,231.68-139.04,15.07-281.19,12.53-421,3.46-49.67-3.22-96.76-48.83-144.69-75.71-212.24-119.01-435.87-206.47-672.4-267-277.75-71.08-558.49-96-842.58-78.75-259.65,15.76-510.7,76.83-751.73,176.27-300.18,123.84-568.7,296.67-804.32,520.32-46.15,43.81-92.17,87.76-148.55,141.45,68.56,3.69,124.09,9.06,179.64,9.27,346.65,1.32,674.2,77.11,975.68,251.63,232.04,134.32,434.36,303.32,590.86,523.34,50.49,70.97,99.76,142.82,155.47,222.7,14.4-14.68,31.22-28.07,43.38-44.83,84.66-116.66,155.14-247.08,255.28-348.24,172.79-174.55,368.77-322.84,595.95-426.31,163.49-74.46,334.71-121.16,508.04-162.32,63.87-15.17,139.75-5.25,192.46-36.55,106.39-63.19,223.41-51.3,334.81-75.52,22.36-4.86,45.15-7.67,67.66-11.87,58.07-10.84,84.23,9.67,85.35,69.71,3.43,184.5,8.44,369.01,8.74,553.52,1.34,844.13,1.3,1688.27,1.58,2532.4,0,21-2.08,41.99-3.49,68.68-82.47,0-160.77.9-239.03-.17-248.16-3.4-493.1,24.19-729,100.59-200.51,64.94-384.7,164.14-551.09,297.29-226.33,181.12-399.81,403.87-541.47,654.04-6.04,10.66-14.07,20.2-26.44,37.73ZM4674.95,6234.26c32.25-22.25,54.15-33.31,70.98-49.6,192.57-186.31,415.41-325.43,669.17-408.44,153.33-50.16,312.29-84.39,470.32-118.34,85.11-18.29,173.45-22.55,260.6-29.99,53.59-4.58,72.32-28.19,70.44-82.63-4.5-130.55-3.64-261.3-4.11-391.98-1.94-539.15-3.52-1078.3-5.34-1617.45-.25-73.43-.49-146.87-1.83-220.28-.79-43.15-24.92-62.22-66.48-53.23-137.42,29.7-276.57,53.8-411.36,92.79-371.67,107.53-656.39,327.42-850.61,666-134.93,235.22-198.7,486.68-199.84,755.29-1.91,451.42-1.43,902.86-1.94,1354.29-.03,29.55,0,59.1,0,103.57Z"/>
  <path class="cls-1" d="M7598.36,2305.65c-17.58,47.43-36.6,94.39-52.49,142.38-74.3,224.4-58.77,447.73,15.27,668.19,63.08,187.83,164.92,348.66,316.68,482.4,99.71,87.87,210.71,151.62,328.93,200.95,92.38,38.55,195.68,51.04,294.32,74.32,17.31,4.08,35.81,2.9,53.29,6.49,37.96,7.81,58.79,24.37,58.86,70.93.53,354.71,4.41,709.41,7.21,1064.11.44,56.16-17.95,68.92-74.44,80.99-158.36,33.83-312.83,80.69-457.58,155.64-244.46,126.57-424.55,315.14-521.22,572.37-81.15,215.92-100.45,438.03-30.03,665.69,57.96,187.37,143.03,357.3,269.53,506.34,33.14,39.05,3.96,62.13-17.87,85-94.01,98.52-190.28,194.87-284.53,293.16-132.09,137.74-263.04,276.56-394.64,414.77-33.13,34.79-67.99,25.53-101.83,1.54-96.66-68.53-199.3-124.82-312.86-160.86-80.62-25.59-158.34-64.9-240.64-79.47-102.63-18.16-208.78-24.48-313.17-22.64-138.88,2.44-270.64,39.55-399.46,96.04-257.43,112.88-433.94,306.81-550.49,552.63-53.09,111.98-70.51,241.98-96.1,365.47-13.8,66.57-19.86,77.12-87.46,76.95-223.95-.58-447.91,1.07-671.86,2.58-73.14.49-78.98-5-52.79-71.37,80.81-204.76,162.95-409,244.32-613.55,49.21-123.69,91.55-250.6,148.43-370.64,80.11-169.05,175.33-330.26,297.84-473.39,111.13-129.83,237.66-242.9,379.65-337.65,135.75-90.58,277.7-171.56,435.79-215.83,122.79-34.39,248.83-56.99,372.86-87.16,256.82-62.47,518.17-37.53,777.92-40.62,52.43-.62,69.47-17.68,69.26-67.5-1.15-268.76-.78-537.53-.68-806.3.07-187.98,1.29-375.96.69-563.94-1.44-451.47-5.21-902.93-5.02-1354.39.14-324.26,6.73-648.53,6.7-972.79,0-66.7,54.82-61.25,87.89-79.93,117.79-66.57,239.23-126.67,358.5-190.69,44.84-24.07,87.51-52.19,131.17-78.47,3.35,2.74,6.71,5.49,10.06,8.23Z"/>
  <path class="cls-1" d="M3924.38,8398.72c-23.55-60.32-45.92-121.14-70.86-180.88-100.98-241.91-263.47-430.65-494.38-555.98-230.01-124.84-479.78-161.83-735.98-131.28-109.77,13.09-215.48,60.89-322.8,93.69-123.38,37.71-228.36,109.79-335.73,178.06-14.3,9.1-50.1,3.62-63.68-8.66-65.03-58.79-125.87-122.22-188.15-184.05-159.79-158.64-318.67-318.22-479.83-475.45-53.53-52.22-63.45-99.08-18.72-175.03,40.34-68.49,88.98-132.24,127.2-201.79,179.04-325.83,197.87-659.63,50.18-1003.42-83.77-195.01-222.26-342.47-395.93-454.04-94.9-60.97-205.02-100.97-312.3-139.11-86.54-30.76-178.73-46.35-269.17-65.04-38.73-8.01-43.45-33.75-43.16-63.01.55-55.45,5.9-110.88,5.88-166.32-.09-301.05-.56-602.1-2.42-903.14-.48-78.73,46.95-119.86,125.96-101.75,101.58,23.29,201.9,53.56,304.44,70.85,184.89,31.18,371.52,46.56,557.8,10.73,103.45-19.9,207.07-41.43,307.97-71.19,74.51-21.98,144.64-58.7,216.93-88.35,21.92-8.99,44.54-16.28,82.17-29.89,0,99.7.23,186.44-.04,273.19-1.16,370.72-3.21,741.44-3.51,1112.16-.33,401.29,1.53,802.58.78,1203.86-.1,53.74,20.81,70.81,73,70.45,137.9-.96,275.88.79,413.72,4.9,96.21,2.87,193.35,4.35,288.09,19.19,123.28,19.31,244.74,50.54,366.7,77.89,195.09,43.77,371.97,131.78,534.78,243.21,205.08,140.36,369.92,321.6,492.9,539.38,115.29,204.17,105.41,414.42,27.01,625.31-46.85,126.02-102.87,248.72-157.48,371.71-16.25,36.6-41.69,69.11-62.92,103.49-6.14.1-12.29.2-18.43.3Z"/>
  <path class="cls-2" d="M4674.95,6234.26c0-44.47-.03-74.02,0-103.57.51-451.43.03-902.87,1.94-1354.29,1.14-268.6,64.9-520.07,199.84-755.29,194.22-338.58,478.94-558.47,850.61-666,134.79-39,273.94-63.1,411.36-92.79,41.56-8.98,65.69,10.08,66.48,53.23,1.34,73.42,1.59,146.85,1.83,220.28,1.82,539.15,3.41,1078.3,5.34,1617.45.47,130.67-.39,261.43,4.11,391.98,1.88,54.44-16.85,78.05-70.44,82.63-87.15,7.45-175.49,11.71-260.6,29.99-158.03,33.95-316.99,68.18-470.32,118.34-253.76,83.01-476.6,222.13-669.17,408.44-16.84,16.29-38.73,27.35-70.98,49.6Z"/>
</svg>